<svg width="24" height="24" viewBox="0 0 24 24" fill="none" xmlns="http://www.w3.org/2000/svg">
<path d="M7.3125 6.1875L14.6232 9.72683C14.9683 9.89389 15.1875 10.2435 15.1875 10.6269V12.9375" stroke="#333333" stroke-width="1.5" stroke-linecap="round"/>
<path d="M11.5294 19.749L5.02941 16.2824C4.70355 16.1086 4.5 15.7693 4.5 15.4V8.07096C4.5 7.6796 4.7283 7.3242 5.08424 7.16149L11.5842 4.19006C11.8483 4.06936 12.1517 4.06936 12.4158 4.19006L18.9158 7.16149C19.2717 7.3242 19.5 7.6796 19.5 8.07096V15.4C19.5 15.7693 19.2965 16.1086 18.9706 16.2824L12.4706 19.749C12.1765 19.9059 11.8235 19.9059 11.5294 19.749Z" stroke="#333333" stroke-width="1.5"/>
</svg>
