<svg width="20" height="20" viewBox="0 0 48 48" fill="none" stroke="#B3B3B3" xmlns="http://www.w3.org/2000/svg" data-id="icon-share" role="img" stroke-width="4"><path d="M17.5 26L30.5 32M17.5 22L30.5 16M18 24C18 26.2091 16.2091 28 14 28C11.7909 28 10 26.2091 10 24C10 21.7909 11.7909 20 14 20C16.2091 20 18 21.7909 18 24ZM38 14C38 16.2091 36.2091 18 34 18C31.7909 18 30 16.2091 30 14C30 11.7909 31.7909 10 34 10C36.2091 10 38 11.7909 38 14ZM38 34C38 36.2091 36.2091 38 34 38C31.7909 38 30 36.2091 30 34C30 31.7909 31.7909 30 34 30C36.2091 30 38 31.7909 38 34Z"></path></svg>