<svg width="16" height="16" viewBox="0 0 16 16" fill="none" xmlns="http://www.w3.org/2000/svg" data-id="star" role="img"><path fill-rule="evenodd" clip-rule="evenodd" d="M8.50517 12.6667C8.19317 12.4841 7.80688 12.4841 7.49488 12.6667L5.05106 14.0971C4.29504 14.5397 3.37581 13.8652 3.57106 13.0112L4.18614 10.3211C4.26853 9.9607 4.14538 9.58426 3.86592 9.34225L1.77597 7.53243C1.10956 6.95534 1.46167 5.86089 2.33955 5.78063L5.13699 5.52488C5.50009 5.49168 5.81634 5.26349 5.96231 4.92937L7.08366 2.3626C7.43296 1.56305 8.56709 1.56305 8.91639 2.3626L10.0377 4.92937C10.1837 5.26349 10.5 5.49168 10.8631 5.52488L13.6605 5.78063C14.5384 5.86089 14.8905 6.95535 14.2241 7.53243L12.1341 9.34225C11.8547 9.58426 11.7315 9.9607 11.8139 10.3211L12.429 13.0112C12.6242 13.8652 11.705 14.5397 10.949 14.0971L8.50517 12.6667Z" fill="#584DE4"></path></svg>