<?xml version="1.0" encoding="iso-8859-1"?>
<!-- Uploaded to: SVG Repo, www.svgrepo.com, Generator: SVG Repo Mixer Tools -->
<!DOCTYPE svg PUBLIC "-//W3C//DTD SVG 1.1//EN" "http://www.w3.org/Graphics/SVG/1.1/DTD/svg11.dtd">
<svg fill="#000000" version="1.1" id="Capa_1" xmlns="http://www.w3.org/2000/svg" xmlns:xlink="http://www.w3.org/1999/xlink" 
	 width="800px" height="800px" viewBox="0 0 453.874 453.874"
	 xml:space="preserve">
<g>
	<path d="M254.152,206.042c-20.808-24.48-59.975-28.152-89.963-29.988c-56.916-3.06-150.552,7.344-162.792,77.112
		c-6.12,33.659,7.344,107.1,50.796,101.592c-1.224,14.688,0,29.376,0,44.063c0,4.284,3.672,8.568,7.956,7.956
		c17.136-1.836,31.824-9.18,45.9-19.584c8.568-6.731,18.36-17.136,23.256-28.151c18.972,10.403,52.02,1.224,70.38-3.061
		c30.599-6.731,56.916-28.151,67.931-57.528C279.244,266.018,276.797,232.357,254.152,206.042z"/>
	<path d="M453.053,144.842c-9.18-48.348-53.244-90.576-102.204-96.696c-57.528-6.732-201.348,15.912-172.583,104.04
		c0.612,1.836,1.836,3.672,3.06,4.284c1.224,1.224,2.448,2.448,4.896,2.448c45.9-3.672,102.204,15.912,117.503,61.812v0.612
		c0,1.224,0,2.448,0.612,3.672c8.567,26.316,26.928,45.288,53.855,52.019c4.896,1.225,10.404-2.447,10.404-7.956
		c0-13.464-0.612-26.928-1.224-41.004C409.601,237.865,461.009,188.294,453.053,144.842z"/>
</g>
</svg>