<?xml version="1.0" standalone="no"?>
<!DOCTYPE svg PUBLIC "-//W3C//DTD SVG 20010904//EN"
 "http://www.w3.org/TR/2001/REC-SVG-20010904/DTD/svg10.dtd">
<svg version="1.0" xmlns="http://www.w3.org/2000/svg"
 width="512.000000pt" height="512.000000pt" viewBox="0 0 512.000000 512.000000"
 preserveAspectRatio="xMidYMid meet">

<g transform="translate(0.000000,512.000000) scale(0.100000,-0.100000)"
fill="#690000" stroke="none">
<path d="M2440 5111 c-259 -49 -472 -235 -558 -488 l-27 -78 -5 -1221 -5
-1221 -55 -47 c-250 -213 -400 -542 -400 -876 0 -448 236 -840 628 -1043 352
-182 732 -182 1084 0 392 203 628 595 628 1043 0 334 -150 663 -400 876 l-55
47 -5 1221 -5 1221 -27 78 c-75 221 -245 391 -463 462 -88 29 -251 41 -335 26z
m234 -316 c107 -33 205 -118 254 -223 l27 -57 5 -1265 c6 -1447 -6 -1292 106
-1374 158 -117 282 -296 329 -475 100 -387 -60 -773 -405 -977 -41 -25 -120
-59 -175 -77 -95 -30 -108 -32 -255 -32 -147 0 -160 2 -255 32 -222 72 -404
222 -508 423 -57 107 -83 192 -96 312 -34 305 101 608 353 794 112 82 100 -73
106 1374 l5 1265 27 57 c29 63 101 146 156 180 90 55 226 73 326 43z"/>
<path d="M2490 3822 c-19 -9 -45 -32 -57 -51 l-23 -34 0 -1036 0 -1036 -72
-35 c-194 -93 -312 -313 -281 -525 40 -277 300 -474 575 -435 199 29 370 185
423 387 57 220 -63 473 -273 573 l-72 35 0 1036 0 1036 -23 34 c-27 41 -79 69
-127 69 -19 0 -51 -8 -70 -18z"/>
</g>
</svg>
