<?xml version="1.0" standalone="no"?>
<!DOCTYPE svg PUBLIC "-//W3C//DTD SVG 20010904//EN"
 "http://www.w3.org/TR/2001/REC-SVG-20010904/DTD/svg10.dtd">
<svg version="1.0" xmlns="http://www.w3.org/2000/svg"
 width="512.000000pt" height="512.000000pt" viewBox="0 0 512.000000 512.000000"
 preserveAspectRatio="xMidYMid meet">

<g transform="translate(0.000000,512.000000) scale(0.100000,-0.100000)"
fill="#1972db" stroke="none">
<path d="M2474 4597 c-714 -815 -1221 -1619 -1365 -2163 -41 -155 -50 -372
-25 -558 105 -750 606 -1318 1260 -1431 115 -19 317 -19 437 1 570 96 1045
567 1209 1200 58 223 76 496 46 669 -74 414 -361 959 -852 1615 -206 276 -604
760 -624 760 -3 0 -41 -42 -86 -93z m-902 -2314 c37 -41 73 -96 203 -318 237
-403 376 -595 565 -786 138 -139 221 -204 343 -270 l82 -44 -85 -9 c-119 -12
-289 6 -405 45 -362 121 -634 445 -740 880 -54 224 -55 529 -2 529 7 0 25 -12
39 -27z"/>
</g>
</svg>
