<?xml version="1.0" encoding="utf-8"?><!-- Uploaded to: SVG Repo, www.svgrepo.com, Generator: SVG Repo Mixer Tools -->
<svg width="800px" height="800px" viewBox="0 0 24 24" fill="none" xmlns="http://www.w3.org/2000/svg">
<path d="M14.857 4.92587C13.7901 2.35805 10.2099 2.35804 9.14297 4.92587L8.58369 6.27189C8.361 6.80784 7.87574 7.17228 7.3211 7.23508L5.76039 7.41179C3.12208 7.71052 2.0693 10.9949 3.96629 12.8289L5.29142 14.11C5.68291 14.4885 5.85894 15.0499 5.75098 15.596L5.43104 17.2142C4.89984 19.901 7.795 21.9982 10.1279 20.5005L11.1745 19.8286C11.6797 19.5043 12.3203 19.5043 12.8255 19.8286L13.8721 20.5005C16.205 21.9982 19.1002 19.901 18.569 17.2142L18.249 15.596C18.1411 15.0499 18.3171 14.4885 18.7086 14.11L20.0337 12.8289C21.9307 10.9949 20.8779 7.71052 18.2396 7.41179L16.6789 7.23508C16.1243 7.17228 15.639 6.80784 15.4163 6.27189L14.857 4.92587Z" fill="#363853"/>
</svg>