<?xml version="1.0" encoding="utf-8"?><!-- Uploaded to: SVG Repo, www.svgrepo.com, Generator: SVG Repo Mixer Tools -->
<svg width="800px" height="800px" viewBox="0 0 24 24" fill="none" xmlns="http://www.w3.org/2000/svg">
<path fill-rule="evenodd" clip-rule="evenodd" d="M14.9703 3.3437C13.0166 2.88543 10.9834 2.88543 9.02975 3.3437C6.20842 4.00549 4.0055 6.20841 3.3437 9.02975C2.88543 10.9834 2.88543 13.0166 3.3437 14.9703C4.0055 17.7916 6.20842 19.9945 9.02975 20.6563C10.9834 21.1146 13.0166 21.1146 14.9703 20.6563C17.7916 19.9945 19.9945 17.7916 20.6563 14.9703C21.1146 13.0166 21.1146 10.9834 20.6563 9.02975C19.9945 6.20842 17.7916 4.00549 14.9703 3.3437ZM12 8.7452C10.9955 8.7452 10.1812 9.55953 10.1812 10.564C10.1812 11.1943 10.5013 11.7501 10.9904 12.0773C11.2041 12.2202 11.2968 12.4877 11.2173 12.7322L10.5604 14.7535C10.4799 15.0009 10.6644 15.2547 10.9245 15.2547H13.0755C13.3356 15.2547 13.5201 15.0009 13.4396 14.7535L12.7827 12.7322C12.7032 12.4877 12.7959 12.2202 13.0096 12.0773C13.4987 11.7501 13.8188 11.1943 13.8188 10.564C13.8188 9.55953 13.0045 8.7452 12 8.7452ZM9.03242 10.564C9.03242 8.92509 10.3611 7.59646 12 7.59646C13.639 7.59646 14.9676 8.92509 14.9676 10.564C14.9676 11.4335 14.5934 12.2153 13.9988 12.7575L14.5321 14.3984C14.8538 15.388 14.1161 16.4035 13.0755 16.4035H10.9245C9.8839 16.4035 9.14621 15.388 9.46788 14.3984L10.0012 12.7575C9.40665 12.2153 9.03242 11.4335 9.03242 10.564Z" fill="#363853"/>
</svg>