<?xml version="1.0" encoding="utf-8"?><!-- Uploaded to: SVG Repo, www.svgrepo.com, Generator: SVG Repo Mixer Tools -->
<svg width="800px" height="800px" viewBox="0 0 24 24" fill="none" xmlns="http://www.w3.org/2000/svg">
<path fill-rule="evenodd" clip-rule="evenodd" d="M11.1374 4.51386C11.703 4.37049 12.2969 4.37049 12.8625 4.51386C14.1819 4.84832 15.1258 5.96028 15.2306 7.26587L15.1915 7.25782C13.0872 6.82413 10.9128 6.82413 8.8085 7.25782L8.76936 7.26589C8.87413 5.96028 9.81803 4.84832 11.1374 4.51386ZM16.685 7.50839V7.7184C18.1592 8.40029 19.2768 9.68843 19.6983 11.2674C20.1955 13.1297 20.0758 15.0973 19.3563 16.8896L19.2718 17.1C18.5 19.0225 16.7426 20.4054 14.6498 20.7371L13.9687 20.845C12.6648 21.0517 11.3352 21.0517 10.0313 20.845L9.35019 20.7371C7.25734 20.4054 5.49999 19.0225 4.72818 17.1L4.64368 16.8895C3.92417 15.0973 3.80447 13.1297 4.30168 11.2674C4.72321 9.68846 5.84078 8.40033 7.31494 7.71843V7.50838C7.31494 5.45953 8.7365 3.66924 10.7734 3.15292C11.5777 2.94903 12.4223 2.94903 13.2266 3.15292C15.2634 3.66924 16.685 5.45954 16.685 7.50839ZM12 12.8504C12.3192 12.8504 12.5779 13.1022 12.5779 13.4129V15.288C12.5779 15.5987 12.3192 15.8506 12 15.8506C11.6809 15.8506 11.4221 15.5987 11.4221 15.288V13.4129C11.4221 13.1022 11.6809 12.8504 12 12.8504Z" fill="#363853"/>
</svg>