<?xml version="1.0" encoding="utf-8"?><!-- Uploaded to: SVG Repo, www.svgrepo.com, Generator: SVG Repo Mixer Tools -->
<svg width="800px" height="800px" viewBox="0 0 24 24" fill="none" xmlns="http://www.w3.org/2000/svg">
<path fill-rule="evenodd" clip-rule="evenodd" d="M16.5721 3C15.3977 3 14.2715 3.46651 13.4411 4.2969L8.21892 9.51907C5.82048 11.9175 4.11897 14.9227 3.29631 18.2133L3.04398 19.2227C2.78227 20.2695 3.7305 21.2177 4.77734 20.956L5.78667 20.7037C9.0773 19.881 12.0825 18.1795 14.4809 15.7811L19.7031 10.5589C20.5335 9.72852 21 8.60226 21 7.42791C21 4.98244 19.0176 3 16.5721 3ZM15.0713 8.92868C15.8707 9.72805 16.7974 10.0686 17.4848 9.94894L18.289 9.14477C18.7443 8.68943 19.0001 8.07186 19.0001 7.42791C19.0001 6.08696 17.913 4.9999 16.5721 4.9999C15.9281 4.9999 15.3106 5.25571 14.8552 5.71105L14.0511 6.51521C13.9314 7.20259 14.2719 8.1293 15.0713 8.92868Z" fill="#363853"/>
</svg>