<?xml version="1.0" standalone="no"?>
<!DOCTYPE svg PUBLIC "-//W3C//DTD SVG 20010904//EN"
 "http://www.w3.org/TR/2001/REC-SVG-20010904/DTD/svg10.dtd">
<svg version="1.0" xmlns="http://www.w3.org/2000/svg"
 width="512.000000pt" height="512.000000pt" viewBox="0 0 512.000000 512.000000"
 preserveAspectRatio="xMidYMid meet">

<g transform="translate(0.000000,512.000000) scale(0.100000,-0.100000)"
fill="#000000" stroke="none">
<path d="M2345 3830 c-873 -98 -1592 -697 -1831 -1525 -62 -213 -75 -311 -81
-601 -5 -247 -4 -262 15 -300 85 -165 306 -164 383 1 15 33 19 65 19 180 1
284 35 511 107 705 210 565 673 962 1273 1092 92 19 133 22 330 22 247 0 326
-11 529 -76 175 -56 390 -171 536 -287 128 -102 300 -296 384 -433 185 -305
261 -600 261 -1026 0 -157 9 -189 67 -244 110 -105 300 -55 344 90 19 65 6
501 -19 642 -164 909 -873 1604 -1778 1745 -119 19 -428 27 -539 15z"/>
<path d="M3102 2749 c-36 -18 -79 -69 -268 -320 l-225 -299 -57 0 c-116 0
-216 -45 -301 -135 -159 -168 -155 -422 10 -588 246 -246 659 -111 719 234 11
64 3 151 -19 212 -7 17 29 71 215 319 158 211 225 308 230 333 18 97 -16 183
-92 235 -53 35 -152 40 -212 9z"/>
</g>
</svg>
